<svg width="800" height="420" viewBox="0 0 800 420" fill="none" xmlns="http://www.w3.org/2000/svg">
  <rect width="800" height="420" fill="#F8F9FA"/>
  <rect x="40" y="40" width="180" height="60" rx="10" fill="#E3F2FD" stroke="#1976D2" stroke-width="2"/>
  <text x="130" y="75" text-anchor="middle" font-size="18" fill="#1976D2">Usuário</text>
  <rect x="280" y="40" width="180" height="60" rx="10" fill="#FFF3E0" stroke="#F57C00" stroke-width="2"/>
  <text x="370" y="75" text-anchor="middle" font-size="18" fill="#F57C00">Frontend (Next.js)</text>
  <rect x="520" y="40" width="180" height="60" rx="10" fill="#E8F5E9" stroke="#388E3C" stroke-width="2"/>
  <text x="610" y="75" text-anchor="middle" font-size="18" fill="#388E3C">Backend API</text>
  <rect x="280" y="140" width="180" height="60" rx="10" fill="#FCE4EC" stroke="#D81B60" stroke-width="2"/>
  <text x="370" y="175" text-anchor="middle" font-size="18" fill="#D81B60">Autenticação (NextAuth.js)</text>
  <rect x="520" y="140" width="180" height="60" rx="10" fill="#FFFDE7" stroke="#FBC02D" stroke-width="2"/>
  <text x="610" y="175" text-anchor="middle" font-size="18" fill="#FBC02D">Banco de Dados (Postgres)</text>
  <rect x="520" y="240" width="180" height="60" rx="10" fill="#E1F5FE" stroke="#0288D1" stroke-width="2"/>
  <text x="610" y="275" text-anchor="middle" font-size="18" fill="#0288D1">Storage/Backup</text>
  <rect x="40" y="340" width="180" height="60" rx="10" fill="#F3E5F5" stroke="#7B1FA2" stroke-width="2"/>
  <text x="130" y="375" text-anchor="middle" font-size="18" fill="#7B1FA2">Monitoramento/Logs</text>
  <rect x="280" y="340" width="180" height="60" rx="10" fill="#E0F2F1" stroke="#00897B" stroke-width="2"/>
  <text x="370" y="375" text-anchor="middle" font-size="18" fill="#00897B">Painel/Admin</text>
  <rect x="520" y="340" width="180" height="60" rx="10" fill="#FFEBEE" stroke="#C62828" stroke-width="2"/>
  <text x="610" y="375" text-anchor="middle" font-size="18" fill="#C62828">ONGs/Órgãos Públicos</text>
  <line x1="220" y1="70" x2="280" y2="70" stroke="#1976D2" stroke-width="2" marker-end="url(#arrow)"/>
  <line x1="460" y1="70" x2="520" y2="70" stroke="#F57C00" stroke-width="2" marker-end="url(#arrow)"/>
  <line x1="370" y1="100" x2="370" y2="140" stroke="#D81B60" stroke-width="2" marker-end="url(#arrow)"/>
  <line x1="610" y1="100" x2="610" y2="140" stroke="#388E3C" stroke-width="2" marker-end="url(#arrow)"/>
  <line x1="610" y1="200" x2="610" y2="240" stroke="#0288D1" stroke-width="2" marker-end="url(#arrow)"/>
  <line x1="130" y1="100" x2="130" y2="340" stroke="#7B1FA2" stroke-width="2" marker-end="url(#arrow)"/>
  <line x1="370" y1="200" x2="370" y2="340" stroke="#00897B" stroke-width="2" marker-end="url(#arrow)"/>
  <line x1="610" y1="300" x2="610" y2="340" stroke="#C62828" stroke-width="2" marker-end="url(#arrow)"/>
  <defs>
    <marker id="arrow" markerWidth="10" markerHeight="10" refX="5" refY="5" orient="auto" markerUnits="strokeWidth">
      <path d="M0,0 L10,5 L0,10 L3,5 Z" fill="#333" />
    </marker>
  </defs>
</svg>
